<?xml version="1.0" encoding="UTF-8" standalone="no"?>
<svg
   xmlns:dc="http://purl.org/dc/elements/1.1/"
   xmlns:cc="http://creativecommons.org/ns#"
   xmlns:rdf="http://www.w3.org/1999/02/22-rdf-syntax-ns#"
   xmlns:svg="http://www.w3.org/2000/svg"
   xmlns="http://www.w3.org/2000/svg"
   xmlns:sodipodi="http://sodipodi.sourceforge.net/DTD/sodipodi-0.dtd"
   xmlns:inkscape="http://www.inkscape.org/namespaces/inkscape"
   version="1.1"
   x="0px"
   y="0px"
   width="1300px"
   height="650px"
   viewBox="0 0 1300 650"
   style="enable-background:new 0 0 1300 650;"
   xml:space="preserve"
   id="svg548"
   sodipodi:docname="Structure.svg"
   inkscape:version="1.0.1 (3bc2e813f5, 2020-09-07)"
   inkscape:export-filename="D:\NeatData\Data1(TraderCAD)\Docs\Structure.png"
   inkscape:export-xdpi="81.783691"
   inkscape:export-ydpi="81.783691"><metadata
   id="metadata554"><rdf:RDF><cc:Work
       rdf:about=""><dc:format>image/svg+xml</dc:format><dc:type
         rdf:resource="http://purl.org/dc/dcmitype/StillImage" /><dc:title></dc:title></cc:Work></rdf:RDF></metadata><defs
   id="defs552">
	
	
	
	
	
	
	
	
	
	
	
	
	
	
	
	
	
	
	
	
</defs><sodipodi:namedview
   pagecolor="#ffffff"
   bordercolor="#666666"
   borderopacity="1"
   objecttolerance="10"
   gridtolerance="10"
   guidetolerance="10"
   inkscape:pageopacity="1"
   inkscape:pageshadow="2"
   inkscape:window-width="1920"
   inkscape:window-height="1017"
   id="namedview550"
   showgrid="false"
   inkscape:zoom="0.70765071"
   inkscape:cx="559.49907"
   inkscape:cy="194.91593"
   inkscape:window-x="1912"
   inkscape:window-y="-8"
   inkscape:window-maximized="1"
   inkscape:current-layer="Текст" />
<style
   type="text/css"
   id="style283">
	.st0{fill:none;stroke:#000000;stroke-width:2;stroke-miterlimit:10;}
	.st1{font-family:'Verdana';}
	.st2{font-size:16px;}
	.st3{enable-background:new    ;}
</style>
<path
   class="st0"
   d="m 555,150 h 190 c 2.8,0 5,-2.2 5,-5 V 55 c 0,-2.8 -2.2,-5 -5,-5 H 555 c -2.8,0 -5,2.2 -5,5 v 90 c 0,2.8 2.2,5 5,5 z"
   id="path285" /><path
   class="st0"
   d="M 245,450 H 55 c -2.8,0 -5,-2.2 -5,-5 v -90 c 0,-2.8 2.2,-5 5,-5 h 190 c 2.8,0 5,2.2 5,5 v 90 c 0,2.8 -2.2,5 -5,5 z"
   id="path287" /><path
   class="st0"
   d="M 245,150 H 55 c -2.8,0 -5,-2.2 -5,-5 V 55 c 0,-2.8 2.2,-5 5,-5 h 190 c 2.8,0 5,2.2 5,5 v 90 c 0,2.8 -2.2,5 -5,5 z"
   id="path289" /><path
   class="st0"
   d="M 245,300 H 55 c -2.8,0 -5,-2.2 -5,-5 v -90 c 0,-2.8 2.2,-5 5,-5 h 190 c 2.8,0 5,2.2 5,5 v 90 c 0,2.8 -2.2,5 -5,5 z"
   id="path291" /><path
   class="st0"
   d="M 495,450 H 305 c -2.8,0 -5,-2.2 -5,-5 v -90 c 0,-2.8 2.2,-5 5,-5 h 190 c 2.8,0 5,2.2 5,5 v 90 c 0,2.8 -2.2,5 -5,5 z"
   id="path293" /><path
   class="st0"
   d="M 495,600 H 305 c -2.8,0 -5,-2.2 -5,-5 v -90 c 0,-2.8 2.2,-5 5,-5 h 190 c 2.8,0 5,2.2 5,5 v 90 c 0,2.8 -2.2,5 -5,5 z"
   id="path295" /><path
   class="st0"
   d="M 745,450 H 555 c -2.8,0 -5,-2.2 -5,-5 v -90 c 0,-2.8 2.2,-5 5,-5 h 190 c 2.8,0 5,2.2 5,5 v 90 c 0,2.8 -2.2,5 -5,5 z"
   id="path297" /><path
   class="st0"
   d="M 995,450 H 805 c -2.8,0 -5,-2.2 -5,-5 v -90 c 0,-2.8 2.2,-5 5,-5 h 190 c 2.8,0 5,2.2 5,5 v 90 c 0,2.8 -2.2,5 -5,5 z"
   id="path299" /><path
   class="st0"
   d="m 1245,600 h -190 c -2.8,0 -5,-2.2 -5,-5 v -90 c 0,-2.8 2.2,-5 5,-5 h 190 c 2.8,0 5,2.2 5,5 v 90 c 0,2.8 -2.2,5 -5,5 z"
   id="path301" /><path
   class="st0"
   d="m 1245,450 h -190 c -2.8,0 -5,-2.2 -5,-5 v -90 c 0,-2.8 2.2,-5 5,-5 h 190 c 2.8,0 5,2.2 5,5 v 90 c 0,2.8 -2.2,5 -5,5 z"
   id="path303" /><path
   class="st0"
   d="m 1245,300 h -190 c -2.8,0 -5,-2.2 -5,-5 v -90 c 0,-2.8 2.2,-5 5,-5 h 190 c 2.8,0 5,2.2 5,5 v 90 c 0,2.8 -2.2,5 -5,5 z"
   id="path305" /><g
   id="g313">
		<g
   id="g311">
			<path
   class="st0"
   d="M 550,400"
   id="path307" />
			<path
   class="st0"
   d="M 510.6,400"
   id="path309" />
		</g>
	</g><g
   id="g321">
		<g
   id="g319">
			<path
   class="st0"
   d="M 800,400"
   id="path315" />
			<path
   class="st0"
   d="M 760.6,400"
   id="path317" />
		</g>
	</g><g
   id="g329">
		<g
   id="g327">
			<path
   class="st0"
   d="M 1050,400"
   id="path323" />
			<path
   class="st0"
   d="M 1010.6,400"
   id="path325" />
		</g>
	</g><path
   class="st0"
   d="m 1245,150 h -190 c -2.8,0 -5,-2.2 -5,-5 V 55 c 0,-2.8 2.2,-5 5,-5 h 190 c 2.8,0 5,2.2 5,5 v 90 c 0,2.8 -2.2,5 -5,5 z"
   id="path331" /><g
   id="g337">
		<g
   id="g335">
			<path
   class="st0"
   d="M 755,190 H 565 c -2.8,0 -5,2.2 -5,5 v 5 h 185 c 2.8,0 5,2.2 5,5 v 85 h 5 c 2.8,0 5,-2.2 5,-5 v -90 c 0,-2.8 -2.2,-5 -5,-5 z"
   id="path333" />
		</g>
	</g><path
   class="st0"
   d="m 555,300 h 190 c 2.8,0 5,-2.2 5,-5 v -90 c 0,-2.8 -2.2,-5 -5,-5 H 555 c -2.8,0 -5,2.2 -5,5 v 90 c 0,2.8 2.2,5 5,5 z"
   id="path339" /><g
   id="g345">
		<g
   id="g343">
			<path
   class="st0"
   d="M 765,180 H 575 c -2.8,0 -5,2.2 -5,5 v 5 h 185 c 2.8,0 5,2.2 5,5 v 85 h 5 c 2.8,0 5,-2.2 5,-5 v -90 c 0,-2.8 -2.2,-5 -5,-5 z"
   id="path341" />
		</g>
	</g><g
   id="g351">
		<g
   id="g349">
			<path
   class="st0"
   d="M 755,40 H 565 c -2.8,0 -5,2.2 -5,5 v 5 h 185 c 2.8,0 5,2.2 5,5 v 85 h 5 c 2.8,0 5,-2.2 5,-5 V 45 c 0,-2.8 -2.2,-5 -5,-5 z"
   id="path347" />
		</g>
	</g><g
   id="g357">
		<g
   id="g355">
			<path
   class="st0"
   d="M 765,30 H 575 c -2.8,0 -5,2.2 -5,5 v 5 h 185 c 2.8,0 5,2.2 5,5 v 85 h 5 c 2.8,0 5,-2.2 5,-5 V 35 c 0,-2.8 -2.2,-5 -5,-5 z"
   id="path353" />
		</g>
	</g>
<g
   id="Стрелочки">
	<g
   id="g368">
		<g
   id="g366">
			<line
   class="st0"
   x1="260.6"
   y1="400"
   x2="300"
   y2="400"
   id="line360" />
			<g
   id="g364">
				<polygon
   points="250,400 264.9,406.1 261.4,400 264.9,393.9     "
   id="polygon362" />
			</g>
		</g>
	</g>
	<g
   id="g378">
		<g
   id="g376">
			<line
   class="st0"
   x1="510.6"
   y1="400"
   x2="550"
   y2="400"
   id="line370" />
			<g
   id="g374">
				<polygon
   points="500,400 514.9,406.1 511.4,400 514.9,393.9     "
   id="polygon372" />
			</g>
		</g>
	</g>
	<g
   id="g388">
		<g
   id="g386">
			<line
   class="st0"
   x1="760.6"
   y1="400"
   x2="800"
   y2="400"
   id="line380" />
			<g
   id="g384">
				<polygon
   points="750,400 764.9,406.1 761.4,400 764.9,393.9     "
   id="polygon382" />
			</g>
		</g>
	</g>
	<g
   id="g398">
		<g
   id="g396">
			<line
   class="st0"
   x1="1010.6"
   y1="400"
   x2="1050"
   y2="400"
   id="line390" />
			<g
   id="g394">
				<polygon
   points="1000,400 1014.9,406.1 1011.4,400 1014.9,393.9     "
   id="polygon392" />
			</g>
		</g>
	</g>
	<line
   class="st0"
   x1="980"
   y1="250"
   x2="1050"
   y2="250"
   id="line400" />
	<g
   id="g410">
		<g
   id="g408">
			<line
   class="st0"
   x1="970"
   y1="339.4"
   x2="970"
   y2="260"
   id="line402" />
			<g
   id="g406">
				<polygon
   points="970,350 976.1,335.1 970,338.6 963.9,335.1     "
   id="polygon404" />
			</g>
		</g>
	</g>
	<path
   class="st0"
   d="M970,260c0-5.5,4.5-10,10-10"
   id="path412" />
	<line
   class="st0"
   x1="980"
   y1="550"
   x2="1050"
   y2="550"
   id="line414" />
	<g
   id="g424">
		<g
   id="g422">
			<line
   class="st0"
   x1="970"
   y1="460.6"
   x2="970"
   y2="540"
   id="line416" />
			<g
   id="g420">
				<polygon
   points="970,450 963.9,464.9 970,461.4 976.1,464.9     "
   id="polygon418" />
			</g>
		</g>
	</g>
	<path
   class="st0"
   d="M970,540c0,5.5,4.5,10,10,10"
   id="path426" />
	<g
   id="g436">
		<g
   id="g434">
			<line
   class="st0"
   x1="539.4"
   y1="250"
   x2="480"
   y2="250"
   id="line428" />
			<g
   id="g432">
				<polygon
   points="550,250 535.1,243.9 538.6,250 535.1,256.1     "
   id="polygon430" />
			</g>
		</g>
	</g>
	<line
   class="st0"
   x1="470"
   y1="260"
   x2="470"
   y2="350"
   id="line438" />
	<g
   id="g448">
		<g
   id="g446">
			<line
   class="st0"
   x1="539.4"
   y1="100"
   x2="460"
   y2="100"
   id="line440" />
			<g
   id="g444">
				<polygon
   points="550,100 535.1,93.9 538.6,100 535.1,106.1     "
   id="polygon442" />
			</g>
		</g>
	</g>
	<line
   class="st0"
   x1="450"
   y1="110"
   x2="450"
   y2="350"
   id="line450" />
	<path
   class="st0"
   d="M480,250c-5.5,0-10,4.5-10,10"
   id="path452" />
	<path
   class="st0"
   d="M460,100c-5.5,0-10,4.5-10,10"
   id="path454" />
	<line
   class="st0"
   x1="960"
   y1="100"
   x2="1050"
   y2="100"
   id="line456" />
	<g
   id="g466">
		<g
   id="g464">
			<line
   class="st0"
   x1="950"
   y1="339.4"
   x2="950"
   y2="110"
   id="line458" />
			<g
   id="g462">
				<polygon
   points="950,350 956.1,335.1 950,338.6 943.9,335.1     "
   id="polygon460" />
			</g>
		</g>
	</g>
	<path
   class="st0"
   d="M950,110c0-5.5,4.5-10,10-10"
   id="path468" />
	<g
   id="g478">
		<g
   id="g476">
			<line
   class="st0"
   x1="400"
   y1="489.4"
   x2="400"
   y2="450"
   id="line470" />
			<g
   id="g474">
				<polygon
   points="400,500 406.1,485.1 400,488.6 393.9,485.1     "
   id="polygon472" />
			</g>
		</g>
	</g>
	<g
   id="g488">
		<g
   id="g486">
			<line
   class="st0"
   x1="260.6"
   y1="250"
   x2="320"
   y2="250"
   id="line480" />
			<g
   id="g484">
				<polygon
   points="250,250 264.9,256.1 261.4,250 264.9,243.9     "
   id="polygon482" />
			</g>
		</g>
	</g>
	<line
   class="st0"
   x1="330"
   y1="260"
   x2="330"
   y2="350"
   id="line490" />
	<g
   id="g500">
		<g
   id="g498">
			<line
   class="st0"
   x1="260.6"
   y1="100"
   x2="340"
   y2="100"
   id="line492" />
			<g
   id="g496">
				<polygon
   points="250,100 264.9,106.1 261.4,100 264.9,93.9     "
   id="polygon494" />
			</g>
		</g>
	</g>
	<line
   class="st0"
   x1="350"
   y1="110"
   x2="350"
   y2="350"
   id="line502" />
	<path
   class="st0"
   d="M320,250c5.5,0,10,4.5,10,10"
   id="path504" />
	<path
   class="st0"
   d="M340,100c5.5,0,10,4.5,10,10"
   id="path506" />
</g>
<g
   id="Текст">
	<text
   class="st1 st2"
   id="text509"
   x="356.30859"
   y="404.46875">Dispatcher</text>
	
	
	
	
	<text
   class="st1 st2"
   id="text519"
   x="886.77344"
   y="405.81641">API</text>
	<text
   class="st1 st2"
   id="text521"
   x="1096.7539"
   y="554.46875">Windows app</text>
	<text
   class="st1 st2"
   id="text523"
   x="1101.7695"
   y="404.46875">Android app</text>
	<text
   class="st1 st2"
   id="text525"
   x="1118.1914"
   y="254.32812">iOS app</text>
	<text
   class="st3"
   id="text531"
   style="font-style:normal;font-variant:normal;font-weight:normal;font-stretch:normal;font-size:16px;font-family:Verdana;-inkscape-font-specification:Verdana"
   x="188.68359"
   y="395.95703"><tspan
     sodipodi:role="line"
     id="tspan596"
     x="149.55859"
     y="395.95703"
     style="text-align:center;text-anchor:middle"><tspan
       x="149.55859"
       y="395.95703"
       class="st1 st2"
       id="tspan527"
       style="font-style:normal;font-variant:normal;font-weight:normal;font-stretch:normal;font-size:16px;font-family:Verdana;-inkscape-font-specification:Verdana;text-align:center;text-anchor:middle">Database</tspan></tspan><tspan
     sodipodi:role="line"
     id="tspan598"
     x="149.55859"
     y="415.95703"
     style="text-align:center;text-anchor:middle">connector</tspan></text>
	<text
   class="st1 st2"
   id="text533"
   x="607.63281"
   y="105.95703">Visualizers</text>
	<text
   class="st1 st2"
   id="text535"
   x="609.62109"
   y="255.95703">Indicators</text>
	
	<text
   class="st1 st2"
   id="text539"
   x="150.00781"
   y="95.957031"><tspan
     sodipodi:role="line"
     id="tspan580"
     x="150.00781"
     y="95.957031"
     style="text-align:center;text-anchor:middle">alphavantage.co</tspan><tspan
     sodipodi:role="line"
     id="tspan582"
     x="150.00781"
     y="115.95703"
     style="text-align:center;text-anchor:middle">connector</tspan></text>
	
	<text
   class="st1 st2"
   id="text543"
   x="150.27734"
   y="245.95703"><tspan
     sodipodi:role="line"
     id="tspan584"
     x="150.27734"
     y="245.95703"
     style="text-align:center;text-anchor:middle">eoddata.com</tspan><tspan
     sodipodi:role="line"
     id="tspan586"
     x="150.27734"
     y="265.95703"
     style="text-align:center;text-anchor:middle">connector</tspan></text>
	<text
   class="st1 st2"
   id="text545"
   x="1132.793"
   y="105.95703">Web</text>
<text
   class="st1 st2"
   id="text543-7"
   x="649.87109"
   y="394.32812"
   style="font-size:16px;font-family:Verdana"><tspan
     sodipodi:role="line"
     id="tspan584-9"
     x="649.87109"
     y="394.32812"
     style="text-align:center;text-anchor:middle">Query prioritizer</tspan><tspan
     sodipodi:role="line"
     id="tspan586-9"
     x="649.87109"
     y="414.32812"
     style="text-align:center;text-anchor:middle">+ DDoS protection</tspan></text><text
   class="st1 st2"
   id="text509-8"
   style="font-size:16px;font-family:Verdana"
   x="330.94922"
   y="554.46875">Dispatcher cache</text></g>
</svg>
